<svg width="64" height="64" viewBox="0 0 64 64" fill="none" xmlns="http://www.w3.org/2000/svg">
<path d="M60.31 12.05L32.31 3.05002C32.1093 2.97991 31.8907 2.97991 31.69 3.05002L3.69 12.05C3.48951 12.1154 3.31482 12.2425 3.1909 12.4131C3.06697 12.5837 3.00016 12.7891 3 13V60C3 60.2652 3.10536 60.5196 3.29289 60.7071C3.48043 60.8947 3.73478 61 4 61H9.44C9.70522 61 9.95957 60.8947 10.1471 60.7071C10.3346 60.5196 10.44 60.2652 10.44 60V32.48H53.56V60C53.56 60.2652 53.6654 60.5196 53.8529 60.7071C54.0404 60.8947 54.2948 61 54.56 61H60C60.2652 61 60.5196 60.8947 60.7071 60.7071C60.8946 60.5196 61 60.2652 61 60V13C60.9998 12.7891 60.933 12.5837 60.8091 12.4131C60.6852 12.2425 60.5105 12.1154 60.31 12.05V12.05ZM10.44 23.24H53.56V25.86H10.44V23.24ZM53.56 18.62V21.24H10.44V18.62H53.56ZM10.44 30.48V27.86H53.56V30.48H10.44Z" fill="#ffffff" id="id_101"></path>
<path d="M51 38.88H46.67C46.4664 38.8836 46.2697 38.9538 46.11 39.08L45.8 37.6C45.5104 36.5537 44.8823 35.6329 44.0138 34.9815C43.1453 34.3302 42.0855 33.985 41 34H23C21.9117 33.9941 20.8522 34.3491 19.9873 35.0096C19.1224 35.67 18.5009 36.5986 18.22 37.65L17.92 39.08C17.7602 38.9538 17.5635 38.8836 17.36 38.88H13C12.7347 38.88 12.4804 38.9853 12.2929 39.1729C12.1053 39.3604 12 39.6148 12 39.88V42.62C11.9969 42.8597 12.08 43.0925 12.2342 43.276C12.3884 43.4596 12.6033 43.5816 12.84 43.62L16.84 44.28V44.45C16.049 44.8644 15.3746 45.4706 14.8784 46.2131C14.3823 46.9556 14.0802 47.8106 14 48.7L13.63 52.82C13.6399 52.8492 13.6399 52.8808 13.63 52.91V58.38C13.6272 59.0653 13.8942 59.7243 14.3731 60.2145C14.8521 60.7047 15.5047 60.9869 16.19 61H20.14C20.5151 60.9944 20.8849 60.9099 21.2251 60.7518C21.5654 60.5938 21.8686 60.3658 22.1148 60.0828C22.3611 59.7997 22.5449 59.4679 22.6544 59.1091C22.7638 58.7502 22.7964 58.3723 22.75 58H41.25C41.2035 58.3723 41.2361 58.7502 41.3456 59.1091C41.455 59.4679 41.6388 59.7997 41.8851 60.0828C42.1313 60.3658 42.4345 60.5938 42.7748 60.7518C43.1151 60.9099 43.4848 60.9944 43.86 61H47.86C48.5504 61 49.2128 60.7264 49.702 60.2391C50.1912 59.7518 50.4673 59.0905 50.47 58.4V57C50.47 56.94 50.47 53 50.47 52.9C50.47 52.8 50.1 48.8 50.11 48.74C50.036 47.85 49.74 46.9929 49.2491 46.2469C48.7582 45.5009 48.088 44.89 47.3 44.47V44.3L51.3 43.64C51.5366 43.6016 51.7516 43.4796 51.9058 43.296C52.0599 43.1125 52.143 42.8797 52.14 42.64V39.88C52.1414 39.736 52.1117 39.5934 52.0529 39.462C51.9942 39.3305 51.9077 39.2133 51.7994 39.1184C51.6912 39.0234 51.5637 38.953 51.4258 38.9118C51.2878 38.8707 51.1425 38.8598 51 38.88ZM20.14 38.11C20.3151 37.4908 20.6911 36.9475 21.2088 36.5655C21.7266 36.1835 22.3567 35.9846 23 36H41C41.6304 35.9887 42.2472 36.1839 42.7563 36.5559C43.2654 36.9278 43.639 37.456 43.82 38.06L45.02 43.76H19L20.14 38.11ZM48.42 53V58.43C48.42 58.5096 48.4041 58.5885 48.3734 58.6619C48.3426 58.7354 48.2975 58.802 48.2407 58.8578C48.1839 58.9137 48.1166 58.9577 48.0426 58.9872C47.9687 59.0168 47.8896 59.0313 47.81 59.03H43.81C43.23 59.03 43.16 58.47 43.2 58.03H44.42C44.6852 58.03 44.9395 57.9246 45.1271 57.7371C45.3146 57.5496 45.42 57.2952 45.42 57.03C45.42 56.7648 45.3146 56.5104 45.1271 56.3229C44.9395 56.1353 44.6852 56.03 44.42 56.03H38.22V54.18C38.22 53.9148 38.1146 53.6604 37.9271 53.4729C37.7395 53.2853 37.4852 53.18 37.22 53.18H26.78C26.5147 53.18 26.2604 53.2853 26.0729 53.4729C25.8853 53.6604 25.78 53.9148 25.78 54.18V56H19.53C19.2647 56 19.0104 56.1053 18.8229 56.2929C18.6353 56.4804 18.53 56.7348 18.53 57C18.53 57.2652 18.6353 57.5196 18.8229 57.7071C19.0104 57.8946 19.2647 58 19.53 58H20.75C20.75 58.46 20.75 59 20.14 59H16.19C16.1103 59.0013 16.0312 58.9868 15.9573 58.9572C15.8833 58.9277 15.816 58.8837 15.7592 58.8278C15.7024 58.772 15.6573 58.7054 15.6266 58.6319C15.5958 58.5585 15.5799 58.4796 15.58 58.4V53L15.94 48.93C16.0081 48.0768 16.3965 47.2809 17.0272 46.7022C17.6578 46.1235 18.484 45.8047 19.34 45.81H44.66C45.5159 45.8047 46.3421 46.1235 46.9728 46.7022C47.6034 47.2809 47.9918 48.0768 48.06 48.93L48.42 53Z" fill="#ffffff" id="id_102"></path>
<path d="M44.94 47.3L39.78 48.3C39.4576 48.3632 39.1558 48.5048 38.9011 48.7124C38.6465 48.9199 38.4469 49.187 38.32 49.49C37.59 51.13 39.21 53.01 40.91 52.96H45.28C49.13 52.88 48.82 46.92 44.94 47.3Z" fill="#c20000" id="id_103"></path>
<path d="M24.58 48.34L19.42 47.34H19.31C15.5 47.14 15.31 52.95 19.08 53.06H23.45C26.09 53.07 27.5 49.14 24.58 48.34Z" fill="#c20b0b" id="id_104"></path>
</svg>