<svg id="Layer_1" data-name="Layer 1" xmlns="http://www.w3.org/2000/svg" viewBox="0 0 128 128"><defs><style>.cls-1{fill:#3b4551;}.cls-2{fill:#2b77c0;}</style></defs><title>a</title><path class="" d="M112.97107,48.69378A49.02027,49.02027,0,0,0,14.974,48.692C5.69986,50.70368.48383,59.04142.48383,72.25033c0,15.27209,6.97267,24.03253,19.129,24.03253a4.905,4.905,0,0,0,4.9047-4.876l.24428-41.22771a39.23759,39.23759,0,1,1,78.47514.05508l.49095,43.59623c0,10.75-10.37548,16.49348-30.82932,17.10567a10.46146,10.46146,0,1,0,.61129,9.78829c31.17823-1.06856,39.19626-13.64523,39.95872-25.04287,8.9866-2.19221,14.04757-10.46169,14.04757-23.43127C127.51617,59.01867,122.2744,50.68766,112.97107,48.69378Z" id="id_101" fill="#ffffff"></path><path class="" d="M55.81014,68.61611a8.52434,8.52434,0,1,1,14.21715,3.66056L60.93516,81.37V97.0133a3.06543,3.06543,0,1,0,6.13087,0V83.90856l7.296-7.29717a14.65409,14.65409,0,1,0-24.44325-6.29851,3.06543,3.06543,0,1,0,5.89138-1.69677Z" id="id_102" fill="#ffffff"></path></svg>