<svg version="1.1" id="Layer_1" xmlns="http://www.w3.org/2000/svg" xmlns:xlink="http://www.w3.org/1999/xlink" x="0px" y="0px" viewBox="0 0 383.3121 349.4619" enable-background="new 0 0 383.3121 349.4619" xml:space="preserve">
<g>
<path d="M263.0538,89.4619c1.083-4,2.4557-7,4.0797-11h-30.2541l3.8253,11H263.0538z" id="id_101" class="" fill="#ffffff"></path>
<path d="M229.9026,60.1724l6.0926,16.2895h32.36c4.8348-9,11.5946-16.4724,19.7012-22.3414
		c-2.3023-0.3718-22.6663-3.6197-34.6926-3.6197c-12.7643,0-34.9254,3.6319-34.9254,3.6319l8.3748-22.301
		c5.5925-0.8995,20.9124-3.2719,26.5556-3.2719c5.6378,0,20.9608,2.3695,26.5495,3.2624l8.3024,22.1501
		c2.0181-1.4518,4.1172-2.796,6.2931-4.0215l-9.2362-24.6467c0,0-24.3917-4.0582-31.9088-4.0582
		c-7.5221,0-31.9115,4.0581-31.9115,4.0581l-11.7488,31.3423c-0.2999,0.0835-0.5824,0.1633-0.8495,0.2396
		c9.7443,1.3808,18.5567,2.857,19.2504,2.9725L229.9026,60.1724z" id="id_102" class="" fill="#ffffff"></path>
<path d="M277.3009,40.8475c0-3.3376-1.8493-6.2411-4.5776-7.7485c-1.2668-0.6999-2.7219-1.1006-4.2715-1.1006
		c-0.6638,0-1.3082,0.0789-1.9302,0.2175c-3.9581,0.8815-6.9189,4.408-6.9189,8.6316c0,3.4188,1.9417,6.3791,4.7797,7.8528
		c1.219,0.633,2.6008,0.9963,4.0694,0.9963c0.8384,0,1.6464-0.1243,2.415-0.3422
		C274.5784,48.3023,277.3009,44.8964,277.3009,40.8475z" id="id_103" class="" fill="#d1082a"></path>
<path d="M177,48.4619H96v9h3v6.6382c0,1.7144,1.5025,3.3618,3.2218,3.3618h6.2029c1.7173,0,3.5753-1.6475,3.5753-3.3618v-6.6382
		h44.7164c6.4817-1,14.2836-1.9122,20.2836-2.5236V48.4619z" id="id_104" class="" fill="#ffffff"></path>
<path d="M177,46.4619V31.0461c0,0-1.3121-0.3879-3.4026-0.971L163.5479,3.4476c0,0-20.7579-3.4476-27.1443-3.4476
		c-6.3905,0-27.1288,3.4476-27.1288,3.4476l-9.9963,26.6275C97.1847,30.6582,96,31.0461,96,31.0461v15.4158H177z M170.0567,38.1693
		c0,2.8893-2.3395,5.2309-5.2309,5.2309c-2.8867,0-5.2289-2.3416-5.2289-5.2309c0-2.8897,2.3422-5.2315,5.2289-5.2315
		C167.7172,32.9377,170.0567,35.2795,170.0567,38.1693z M113.8073,8.9901c4.7512-0.7642,17.7665-2.7781,22.5608-2.7781
		c4.7897,0,17.8077,2.0139,22.5557,2.7725l7.1022,18.9484c0,0-18.8218-3.0923-29.662-3.0923
		c-10.8442,0-29.6715,3.0923-29.6715,3.0923L113.8073,8.9901z M107.9023,32.9377c2.8868,0,5.2302,2.3418,5.2302,5.2315
		c0,2.8893-2.3434,5.2309-5.2302,5.2309c-2.8913,0-5.2317-2.3416-5.2317-5.2309C102.6706,35.2795,105.011,32.9377,107.9023,32.9377z
		" id="id_105" class="" fill="#ffffff"></path>
<path d="M141.6643,16.6531c0,2.9045,1.6495,5.4194,4.0606,6.6714c1.0356,0.5378,2.2095,0.8464,3.4573,0.8464
		c0.7123,0,1.3989-0.1056,2.0519-0.2907c3.1532-0.8939,5.466-3.7874,5.466-7.2272c0-2.8356-1.5712-5.3024-3.889-6.5829
		c-1.0762-0.5945-2.3124-0.9349-3.6288-0.9349c-0.5639,0-1.1113,0.0671-1.6398,0.1848
		C144.1797,10.0688,141.6643,13.0648,141.6643,16.6531z" id="id_106" class="" fill="#cf0b0b"></path>
<path d="M228.8848,163.4619h9.7453c2.6967,0,5.3699-2.5821,5.3699-5.2741v-10.7259h4v-13H147.7818l5.1031,13H224v10.7259
		C224,160.8798,226.1903,163.4619,228.8848,163.4619z" id="id_107" class="" fill="#ffffff"></path>
<path d="M132.111,117.4697c0-4.5375,3.675-8.2148,8.2151-8.2148c4.5329,0,8.2128,3.6773,8.2128,8.2148
		c0,3.1334-1.7561,6.0309-4.3353,7.4159l2.3986,6.5764H248v-25.1774c0,0-1.6466-0.6092-4.9294-1.5248l-15.5734-41.8121
		c0,0-32.492-5.4137-42.5201-5.4137c-10.0349,0-42.5476,5.4137-42.5476,5.4137l-15.4891,41.8121
		c-3.2879,0.9156-4.9404,1.5248-4.9404,1.5248v11.6216c4,0.5934,7.5178,1.1627,10.5587,1.6416
		C132.3852,118.8829,132.111,118.189,132.111,117.4697z M229.7108,109.2548c4.5402,0,8.2139,3.6773,8.2139,8.2148
		c0,4.537-3.6736,8.2139-8.2139,8.2139c-4.5329,0-8.2107-3.6768-8.2107-8.2139
		C221.5001,112.9321,225.1779,109.2548,229.7108,109.2548z M149.5984,71.6508c7.4607-1.2,27.8982-4.3623,35.4265-4.3623
		c7.5211,0,27.9626,3.1624,35.4182,4.3536l11.1522,29.754c0,0-29.5551-4.8557-46.5771-4.8557
		c-17.0281,0-46.592,4.8557-46.592,4.8557L149.5984,71.6508z" id="id_108" class="" fill="#ffffff"></path>
<circle cx="205.1462" cy="83.6837" r="11.8051" id="id_109" class="" fill="#cf0000"></circle>
<path d="M0,218.4619v18h7v13.7979c0,3.542,2.7617,6.2021,6.3138,6.2021h12.8155c3.5481,0,6.8707-2.6601,6.8707-6.2021v-13.7979
		h49.7826l6.7162-18H0z" id="id_110" class="" fill="#ffffff"></path>
<path d="M91.0514,214.4619l14.0776-37.4695l3.001-0.4563c0.894-0.1488,9.8458-1.6116,21.3611-3.3414
		c-13.3286-1.8275-32.3745-4.0574-45.6381-4.0574c-22.4045,0-61.3027,6.3942-61.3027,6.3942L37.25,136.3973
		c9.8163-1.5789,36.7066-5.7383,46.6118-5.7383c9.8958,0,36.7915,4.1614,46.601,5.7288l13.043,34.7987
		c4.3693-0.6062,8.7933-1.192,13.0494-1.7132l-16.6853-44.5245c0,0-42.8137-7.1229-56.0081-7.1229
		c-13.2032,0-56.0128,7.123-56.0128,7.123L6.9849,179.9626C2.6589,181.1673,0,181.9688,0,181.9688v32.4931H91.0514z M25.05,185.8769
		c5.9641,0,10.8058,4.8384,10.8058,10.8086c0,5.9695-4.8417,10.8073-10.8058,10.8073c-5.9736,0-10.809-4.8377-10.809-10.8073
		C14.2411,190.7153,19.0764,185.8769,25.05,185.8769z" id="id_111" class="" fill="#ffffff"></path>
<circle cx="110.3362" cy="152.232" r="15.5323" id="id_112" class="" fill="#cf0000"></circle>
<path d="M213.9073,196.7208c-10.9116,0-19.7552,8.8444-19.7552,19.7552c0,10.793,8.6575,19.5496,19.4066,19.7375l9.0535-14.7824
		c1.2384-2.022,3.8905-2.6594,5.9125-1.421l4.1712,2.5546c0.6216-1.9191,0.9666-3.9625,0.9666-6.0887
		C233.6624,205.5651,224.8172,196.7208,213.9073,196.7208z" id="id_113" class="" fill="#cc0404"></path>
<path d="M327.442,52.7772c-30.8566,0-55.8702,25.0126-55.8702,55.8693c0,14.7062,5.6895,28.0776,14.9785,38.0543l-19.3707,42.8395
		l33.1231-32.0561c8.0373,4.4745,17.2877,7.0344,27.1393,7.0344c30.8557,0,55.8702-25.0145,55.8702-55.8721
		C383.3121,77.7898,358.2977,52.7772,327.442,52.7772z M325.9601,157.1891c-25.1596,0-45.5563-20.3957-45.5563-45.5573
		c0-25.1589,20.3967-45.5554,45.5563-45.5554c25.1625,0,45.5563,20.3965,45.5563,45.5554
		C371.5165,136.7934,351.1226,157.1891,325.9601,157.1891z" id="id_114" class="" fill="#cf0000"></path>
<path d="M322.107,128.7241c-2.1295,2.1314-2.1295,5.5836,0,7.7122c2.1285,2.1295,5.5817,2.1295,7.7084,0
		c2.1302-2.1285,2.1302-5.5807,0-7.7122C327.6887,126.5974,324.2355,126.5974,322.107,128.7241z" id="id_115" class="" fill="#cf0000"></path>
<path d="M306.9247,121.2296L311,125.282v-0.0028c4-4.1501,9.5428-6.2139,14.9847-6.2166
		c5.4394,0.0026,10.8434,2.0664,14.9972,6.2194l4.0463-4.0524c-5.2582-5.2601-12.1645-7.8995-19.0527-7.8967
		C319.0875,113.3301,312.1775,115.9694,306.9247,121.2296z" id="id_116" class="" fill="#cf0000"></path>
<path d="M289.9061,104.192L294,108.2462v-0.0016c9-8.8551,20.3926-13.272,32.0016-13.2739
		c11.6058,0.0019,23.1668,4.4188,32.0262,13.2739l4.0422-4.0508c-9.9649-9.9649-23.0313-14.9564-36.084-14.9545
		C312.9299,89.2374,299.8654,94.2289,289.9061,104.192z" id="id_117" class="" fill="#cf0000"></path>
<path d="M298.3779,112.7099l4.0541,4.0543c6.5035-6.5063,15.0032-9.7438,23.5282-9.7475
		c8.5253,0.0037,17.0212,3.244,23.5292,9.7475l4.0489-4.0543c-7.608-7.6089-17.6058-11.4265-27.5781-11.423
		C315.9882,101.2834,305.9903,105.101,298.3779,112.7099z" id="id_118" class="" fill="#cf0000"></path>
<path d="M74,300.4619v23h8v17.6931c0,4.5049,3.9891,8.3069,8.507,8.3069h16.2997c4.5127,0,8.1934-3.8019,8.1934-8.3069v-17.6931
		h130v17.6931c0,4.5049,4.1235,8.3069,8.6328,8.3069h16.3083c4.5127,0,8.059-3.8019,8.059-8.3069v-17.6931h8v-23H74z" id="id_119" class="" fill="#ffffff"></path>
<path d="M180.2351,172.7158c-16.7927,0-71.2411,9.0596-71.2411,9.0596l-26.3234,69.9705C77.1685,253.278,74,254.2975,74,254.2975
		v41.1644h212v-41.1644c0,0-2.9449-1.0195-8.4385-2.5517l-26.1562-69.9705C251.4054,181.7753,197.0167,172.7158,180.2351,172.7158z
		 M105.434,259.268c7.5856,0,13.7437,6.1538,13.7437,13.7471c0,7.5926-6.1581,13.7455-13.7437,13.7455
		c-7.5977,0-13.7476-6.1529-13.7476-13.7455C91.6864,265.4218,97.8363,259.268,105.434,259.268z M225.4293,225.1839l0.5223-0.8528
		l7.142,4.3741l-0.5223,0.8527L225.4293,225.1839z M268.7604,273.0151c0,7.5926-6.1477,13.7455-13.7455,13.7455
		c-7.5856,0-13.7403-6.1529-13.7403-13.7455c0-7.5933,6.1547-13.7471,13.7403-13.7471
		C262.6127,259.268,268.7604,265.4218,268.7604,273.0151z M231.6688,242.2844l6.8174-11.1314
		c0.5745-0.938,0.277-2.1756-0.661-2.7501l-10.5016-6.4317c-0.938-0.5745-2.1756-0.2771-2.7501,0.6609l-10.7444,17.5432
		c-11.78-1.2423-23.9077-2.1844-33.6051-2.1844c-28.4958,0-77.9694,8.1259-77.9694,8.1259l18.6962-49.7772
		c12.485-2.0081,46.6862-7.3001,59.2843-7.3001c12.5862,0,46.7942,5.292,59.2707,7.2855l18.6627,49.7918
		C258.1685,246.1168,246.7201,244.2361,231.6688,242.2844z M233.9103,229.6453c0.3786-0.6182,1.1866-0.8124,1.8047-0.4338
		c0.6182,0.3786,0.8124,1.1866,0.4338,1.8047s-1.1866,0.8124-1.8047,0.4338S233.5317,230.2634,233.9103,229.6453z" id="id_120" class="" fill="#ffffff"></path>
</g>
</svg>