<svg version="1.1" id="Layer_1" xmlns="http://www.w3.org/2000/svg" xmlns:xlink="http://www.w3.org/1999/xlink" x="0px" y="0px" viewBox="0 0 111.1 122.9" style="enable-background:new 0 0 111.1 122.9" xml:space="preserve"><g><path d="M45,28.7c-10.1,0-13.2,0.1-23.4,0.1c-1.2,0-2.3,0.1-3.3,0.3c-1.1,0.2-2.1,0.5-3,0.9c-1,0.4-1.9,0.9-2.8,1.5 c-0.9,0.6-1.7,1.3-2.5,2.1c-0.8,0.8-1.5,1.6-2.1,2.5c-0.6,0.9-1.1,1.8-1.5,2.8c-0.4,1-0.7,2-0.9,3c-0.2,1.1-0.3,2.2-0.3,3.3v33.3 c0,1.2,0.1,2.3,0.3,3.3c0.2,1.1,0.5,2.1,0.9,3c0.4,1,0.9,1.9,1.5,2.8c0.6,0.9,1.3,1.7,2.1,2.5l0,0c0.8,0.8,1.7,1.5,2.6,2.1 c0.9,0.6,1.8,1.1,2.8,1.5c1,0.4,2,0.7,3,0.9c1.1,0.2,2.2,0.3,3.3,0.3h12.6c0.4,0,0.8,0.1,1.1,0.3c0.3,0.2,0.6,0.4,0.9,0.7l0,0 c1,1.3,2,2.6,3.1,3.8c1.1,1.2,2.2,2.4,3.5,3.5c1.2,1.1,2.4,2.2,3.8,3.2c1.3,1,2.7,2,4,2.9c1.3,0.9,2.7,1.7,4.2,2.5 c1.4,0.8,2.9,1.5,4.4,2.2c0.2,0.1,0.4,0.1,0.5,0c0.3-0.2,0.4-0.5,0.2-0.8c-0.3-0.5-0.5-0.9-0.8-1.4c-0.2-0.5-0.5-0.9-0.7-1.4l0,0 c-0.4-1-0.8-1.9-1.2-2.9c-0.4-1-0.8-2-1.1-3.1c-0.3-1-0.7-2-1-3c-0.3-1-0.6-2-0.9-3.1c-0.1-0.3-0.1-0.6-0.1-0.9 c0-0.7,0.3-1.3,0.7-1.8l0,0c0.5-0.5,1.1-0.8,1.8-0.8h14.7c1.2,0,2.3-0.1,3.3-0.3c1-0.2,2-0.5,3-0.9l0,0c0.9-0.4,1.9-0.9,2.7-1.5 c0.9-0.6,1.8-1.3,2.6-2.2l0,0c0.8-0.8,1.5-1.6,2.1-2.5c0.6-0.9,1.1-1.8,1.5-2.8c0.4-1,0.7-2,0.9-3c0.2-1.1,0.3-2.2,0.3-3.3v-6.8 c0-3.4,4.4-3.4,5.2-1v7.8c0,1.5-0.1,2.9-0.4,4.3c-0.3,1.4-0.7,2.7-1.2,4.1c-0.5,1.3-1.2,2.5-2,3.7c-0.8,1.2-1.7,2.3-2.8,3.3 c-1,1.1-2.2,2-3.3,2.8c-1.2,0.8-2.4,1.4-3.6,2l0,0c-1.3,0.5-2.7,0.9-4,1.2c-1.4,0.3-2.8,0.4-4.3,0.4H61c-0.1,0-0.1,0-0.2,0 c-0.3,0.1-0.5,0.4-0.4,0.7l0,0c0.2,0.6,0.4,1.3,0.6,2l0,0c0.3,0.9,0.7,1.9,1.1,2.8c0.4,0.9,0.7,1.8,1.1,2.6c0,0,0,0.1,0,0.1 c0.4,0.9,0.8,1.7,1.3,2.6c0.5,0.8,1.1,1.7,1.7,2.5c0.6,0.8,1.3,1.6,2.1,2.5l0,0c0.8,0.8,1.6,1.7,2.6,2.4c0.5,0.5,0.8,1.1,0.9,1.8 c0,0.6-0.2,1.3-0.6,1.8c-0.3,0.4-0.7,0.6-1.2,0.7c-0.4,0.1-0.9,0.1-1.4,0c-1.9-0.5-3.8-1.1-5.6-1.7c-1.8-0.6-3.6-1.3-5.3-2.1 c-1.7-0.7-3.4-1.6-5-2.4c-1.6-0.9-3.2-1.8-4.7-2.8l0,0c-1.5-1-3-2-4.4-3.1c-1.4-1.1-2.8-2.3-4.1-3.5l0,0c-1.1-1-2.2-2.1-3.2-3.3 c-1-1.1-2.1-2.3-3-3.5c-0.1-0.2-0.3-0.3-0.5-0.3H21.6c-1.5,0-2.9-0.1-4.3-0.4c-1.4-0.3-2.7-0.7-4-1.2l0,0c-1.3-0.5-2.5-1.2-3.7-2 c-1.2-0.8-2.3-1.7-3.3-2.7c-1.1-1.1-2-2.2-2.8-3.3c-0.8-1.2-1.5-2.4-2-3.7c-0.5-1.3-0.9-2.6-1.2-4C0.1,81.4,0,80,0,78.5V45 c0-1.5,0.1-2.9,0.4-4.3c0.3-1.4,0.7-2.7,1.2-4c0.5-1.3,1.2-2.5,2-3.7c0.8-1.2,1.7-2.3,2.8-3.3c1.1-1.1,2.2-2,3.3-2.8 c1.2-0.8,2.4-1.4,3.6-2l0,0c1.3-0.5,2.7-0.9,4.1-1.2c1.4-0.3,2.8-0.4,4.3-0.4c10.5,0,14,0,24.5,0C48.7,24,48.8,28.7,45,28.7 L45,28.7L45,28.7z M58.1,33.9c-0.5,1-0.6,2.4-0.5,3.7c0.1,0.6,0.2,1.2,0.3,1.8c0.2,0.6,0.4,1.3,0.6,1.9c0.3,0.6,0.6,1.2,0.9,1.8 c0.3,0.5,0.7,1.1,1.1,1.5c1,1.1,2.1,2,3.4,2.3c2.3,0.7,6.3-1.3,8.4-2l0,0c0.4-0.1,0.9-0.1,1.2,0.1c0.4,0.2,0.7,0.5,0.9,0.9 c0,0.1,0,0.1,0.1,0.2c0.1,0.4,0.3,0.8,0.4,1.2c1,3,1.9,5.9,3,8.2c0.1,0.2,0.2,0.5,0.3,0.7l0,0.1c0.3,0.7,0.7,1.4,1.1,2.1 c0.4,0.7,0.7,1.2,1.1,1.6c0.2,0.2,0.5,0.4,0.8,0.4c0.3,0,0.7-0.2,1.3-0.7c0.2-0.3,0.5-0.5,0.8-0.8l0,0c0.2-0.2,0.5-0.5,0.9-0.9 c1.1-1,2.7-2.5,3.3-3.3l-0.3-0.1c-3.4-1.1-3.2-2.9-3-4.5l0,0c0.1-0.5,0.1-1,0-1.3l0,0c0-0.1-0.1,0-0.3-0.2 c-0.1-0.1-0.2-0.1-0.3-0.2c-0.5-0.4-0.8-0.8-1.1-1.3c-0.3-0.6-0.4-1.2-0.5-1.8c-0.1-0.6,0-1.3,0.1-1.9c0.1-0.8,0.3-1.5,0.5-2.1l0,0 c0.1-0.3,0.2-0.5,0.4-0.7c0.2-0.2,0.5-0.3,0.8-0.4l0,0c7-1.6,10.6-0.3,14,0.9c0.5,0.2,1.1,0.4,1.6,0.6c-1.5-1.5-2.8-3.2-4.1-5.1 c-2.1-3-3.9-6.3-5.4-9.7c-1.6-3.4-2.8-6.9-3.7-10.2c-0.6-2.3-1.1-4.6-1.3-6.6c-1.5,2.6-3.6,5.7-6.6,8.9 C75.5,21.6,59.2,31.4,58.1,33.9L58.1,33.9z M99.9,26.2c0.1,1.3-0.3,3.1-1,4.6c-0.5,1.1-1.1,2-1.7,2.5c1.3,2,2.8,3.9,4.3,5.5 c1.5,1.6,3,2.9,4.6,3.9l0.1,0c0,0,0.1,0,0.2,0l0,0c0.1,0,0.2,0,0.3-0.1c0.1,0,0.2-0.1,0.2-0.1c0.3-0.3,0.5-0.7,0.6-1.2 c0.2-0.6,0.3-1.2,0.3-1.9c0.1-2.2-0.3-4.9-1.1-7.9c-0.9-3.3-2.3-6.9-3.9-10.4c-1.6-3.4-3.5-6.8-5.4-9.6c-1.8-2.7-3.7-5-5.4-6.5 c-0.6-0.6-1.3-1-1.8-1.3c-0.5-0.3-0.9-0.4-1.3-0.4l-0.1,0c-0.1,0.1-0.2,0.2-0.3,0.4l0,0c-0.6,1.5-0.6,3.9-0.2,6.8 c0.4,2.9,1.3,6.2,2.5,9.6c0.3-0.1,0.5-0.1,0.9-0.1c1.1-0.1,2.5,0,3.9,0.5c1.4,0.5,2.8,1.4,3.6,2.9C99.5,24.1,99.8,25,99.9,26.2 L99.9,26.2z M106,46.1c-0.1,0-0.3,0-0.4,0c-0.1,0-0.3,0-0.4-0.1l-0.5-0.1c-1.2-0.1-2.5-0.4-3.8-0.6l-0.1,0 c-1.4-0.3-2.6-0.7-3.8-1.2c-2.8-1.1-5.8-2.3-11.5-1.1c-0.1,0.3-0.1,0.5-0.1,0.8c0,0.3-0.1,0.7,0,1c0,0.2,0.1,0.4,0.1,0.6 c0,0.1,0.1,0.2,0.1,0.2l0.1,0.1c0.8,0.6,1.2,0.9,1.5,1.7c0.3,0.7,0.2,1.4,0.2,2.1c-0.1,0.7-0.1,1.4,0.7,1.7l0,0c1,0.3,2,0.7,2.6,2 c0.1,0.1,0.1,0.3,0.2,0.4l0,0c0,0.1,0,0.3,0,0.4l0,0c-0.2,1.9-3,4.6-4.6,6.1c-0.3,0.3-0.6,0.6-0.8,0.8l-0.1,0.1 c-0.2,0.2-0.4,0.4-0.6,0.6L84.8,62c-1.3,1.3-2.6,1.8-3.7,1.8c-1.2,0-2.2-0.6-3.1-1.5c-0.6-0.6-1.1-1.4-1.6-2.2 c-0.4-0.8-0.8-1.6-1.2-2.5c-0.1-0.2-0.2-0.5-0.3-0.7c-1.1-2.4-2.1-5.2-3-8.2c-2.9,1.2-5.6,2.5-8.9,1.5c-1.9-0.6-3.5-1.8-4.9-3.3 l0,0c-0.5-0.6-1-1.3-1.4-2c-0.4-0.7-0.8-1.4-1.1-2.2c-0.3-0.8-0.6-1.5-0.8-2.3c-0.2-0.8-0.4-1.6-0.4-2.4c-0.2-2,0-3.9,0.7-5.5 c2.1-4.6,15.9-10.6,21.3-16.6c3.6-4.1,5.7-7.9,7.2-10.7l0-0.1c0.9-1.6,1.6-2.9,2.3-3.8c0.2-0.2,0.4-0.4,0.6-0.6 c0.2-0.2,0.4-0.3,0.7-0.5C87.5,0.2,87.7,0.1,88,0c0.3,0,0.6,0,0.9,0c0.8,0.1,1.6,0.3,2.5,0.7c0.9,0.4,1.7,1,2.6,1.8 c1.9,1.7,4,4.1,6,7c2.1,3,4,6.5,5.7,10.1c1.7,3.7,3.2,7.5,4.2,11.1c0.9,3.3,1.3,6.3,1.2,8.8l0,0c-0.1,1.1-0.3,2-0.6,2.9 c-0.3,0.9-0.7,1.6-1.3,2.3l-0.1,0.1L109,45c-0.4,0.3-0.8,0.5-1.2,0.7l0,0c-0.4,0.2-0.8,0.3-1.1,0.3l0,0c-0.1,0-0.3,0-0.4,0 L106,46.1L106,46.1z M65.7,80.1c1.3,0,2.4-1.1,2.4-2.4c0-1.3-1.1-2.4-2.4-2.4l-25.7-0.4l-4.9-0.3c-1.3-0.1-2.5,0.9-2.6,2.3 c-0.1,1.3,0.9,2.5,2.3,2.6l4.9,0.3C39.8,79.7,63.5,80,65.7,80.1L65.7,80.1L65.7,80.1z M58,64.9c1.3,0,2.4-1.1,2.4-2.4 c0-1.3-1.1-2.4-2.4-2.4H23.3c-1.3,0-2.4,1.1-2.4,2.4c0,1.3,1.1,2.4,2.4,2.4H58L58,64.9L58,64.9z M47.2,50.4c1.3,0,2.4-1.1,2.4-2.4 s-1.1-2.4-2.4-2.4H23.3c-1.3,0-2.4,1.1-2.4,2.4c0,1.3,1.1,2.4,2.4,2.4H47.2L47.2,50.4L47.2,50.4z" id="id_101" class="" fill="#ffffff"></path></g></svg>