<svg version="1.1" id="Layer_1" xmlns="http://www.w3.org/2000/svg" xmlns:xlink="http://www.w3.org/1999/xlink" x="0px" y="0px" viewBox="0 0 28 23.922" style="enable-background:new 0 0 28 23.922;" xml:space="preserve">
<g id="car-fixing_1_">
<path d="M18,20.422c0-1.93-1.57-3.5-3.5-3.5c-1.93,0-3.5,1.57-3.5,3.5s1.57,3.5,3.5,3.5C16.43,23.922,18,22.352,18,20.422z
		 M13,20.422c0-0.828,0.672-1.5,1.5-1.5c0.828,0,1.5,0.672,1.5,1.5s-0.672,1.5-1.5,1.5C13.672,21.922,13,21.25,13,20.422z" id="id_101" class="" fill="#ffffff"></path>
<polygon points="28,5.922 25.333,5.922 19,10.672 19,11.922 28,11.922 	" id="id_102" class="" fill="#e1ebed"></polygon>
<circle cx="14.5" cy="20.422" r="1.5" id="id_103" class="" fill="#ededed"></circle>
<path d="M7,5.923c1.104,0,2-0.896,2-2.001c0-1.105-0.896-2-2-2c-1.106,0-2,0.895-2,2C5,5.027,5.894,5.923,7,5.923z" id="id_104" class="" fill="#e8eced"></path>
<polygon points="8.305,10.183 7,6.922 3,5.922 0,13.922 2,17.922 2,23.922 4,23.922 4,13.922 5.846,9.614 7,11.922 12,11.922 
		12,10.922 	" id="id_105" class="" fill="#dae2e3"></polygon>
<path d="M25.333,5.922H28v-1h-3l-7.489,5.617L11.839,0l-0.881,0.474l5.686,10.567L8,13.922v1H6v6h2v1h2.275
		C10.108,21.451,10,20.951,10,20.422c0-2.485,2.015-4.5,4.5-4.5c2.485,0,4.5,2.015,4.5,4.5c0,0.529-0.108,1.029-0.275,1.5H28v-7h-2
		v-1h2v-2h-9v-1.25L25.333,5.922z" id="id_106" class="" fill="#ffffff"></path>
<rect x="26" y="13.922" width="2" height="1" id="id_107" class="" fill="#d0dde0"></rect>
</g>
</svg>