<svg xmlns="http://www.w3.org/2000/svg" xml:space="preserve" width="2.66666in" height="2.66666in" version="1.1" style="shape-rendering:geometricPrecision; text-rendering:geometricPrecision; image-rendering:optimizeQuality; fill-rule:evenodd; clip-rule:evenodd" viewBox="0 0 2666.66 2666.66" xmlns:xlink="http://www.w3.org/1999/xlink" xmlns:xodm="http://www.corel.com/coreldraw/odm/2003">
<defs>
<style type="text/css">
   
    .fil1 {fill:#FEFEFE}
    .fil0 {fill:#076E6D}
   
  </style>
</defs>
<g id="Layer_x0020_1">
<metadata id="CorelCorpID_0Corel-Layer"></metadata>
<circle class="fil0" cx="1333.33" cy="1333.33" r="1333.33" id="id_101" style="fill: rgb(44, 46, 46);"></circle>
<path class="fil1" d="M1312.78 2186.41c-61.99,-1.47 -122.35,-9.59 -180.42,-23.67l18.59 -69.37c6.98,-26.12 -32.69,-36.83 -39.71,-10.65l-18.59 69.36c-58.87,-17.34 -115.11,-40.88 -167.96,-69.86l35.78 -61.98c13.54,-23.44 -22.08,-43.96 -35.59,-20.55l-35.74 61.92c-51.98,-31.83 -100.31,-69.07 -144.2,-110.93 16.37,-12.9 37.13,-37.04 50.45,-50.35 19.13,-19.11 -9.9,-48.22 -29.06,-29.07l-50.4 50.4c-41.86,-43.93 -79.12,-92.28 -110.94,-144.3 19.6,-9.38 52.43,-30.09 61.96,-35.6 23.43,-13.53 2.85,-49.12 -20.55,-35.59l-61.91 35.76c-29.05,-53.04 -52.67,-109.46 -70.01,-168.54l69.47 -17.97c26.16,-7.01 15.44,-46.8 -10.65,-39.7l-69.3 18.57c-14.07,-58.07 -22.24,-118.42 -23.72,-180.41l71.72 0c27.06,0 27.02,-41.1 -0.02,-41.1l-71.72 0c1.47,-61.98 9.59,-122.35 23.68,-180.42l74.69 19.31c23.76,0 28.4,-34.23 5.29,-40.42l-69.33 -18.57c17.34,-58.86 40.87,-115.1 69.84,-167.96 16.19,9.66 62.24,38.5 72.22,38.5 20.88,0 28.48,-27.86 10.3,-38.35l-61.9 -35.73c31.81,-51.95 69.02,-100.26 110.85,-144.13 19.11,19.61 50.42,56.4 64.94,56.4 18.1,0 27.55,-22.07 14.53,-35.08l-50.39 -50.39c43.88,-41.83 92.18,-79.06 144.15,-110.87l35.72 61.89c13.39,23.2 49.24,3.1 35.59,-20.55l-35.75 -61.93c52.87,-28.97 109.11,-52.52 167.99,-69.86l18.57 69.32c6.96,26.03 46.76,15.65 39.72,-10.63l-18.58 -69.33c58.06,-14.08 118.4,-22.23 180.37,-23.71l0 71.74c0,27.05 41.1,27.06 41.1,0l0 -71.74c61.98,1.47 122.35,9.59 180.41,23.67l-18.59 69.38c-7.05,26.28 32.74,36.66 39.7,10.63l18.58 -69.36c58.88,17.35 115.13,40.88 168,69.86l-35.78 61.98c-13.67,23.68 22.22,43.7 35.59,20.55l35.74 -61.92c51.96,31.82 100.28,69.04 144.15,110.87l-50.41 50.4c-13,13 -3.58,35.08 14.54,35.08 14.5,0 45.9,-36.84 64.95,-56.4 41.82,43.87 79.03,92.16 110.83,144.12l-61.89 35.72c-18.17,10.49 -10.56,38.36 10.29,38.36 9.94,0 55.98,-28.8 72.19,-38.49 28.96,52.86 52.51,109.08 69.84,167.95l-69.33 18.57c-23.08,6.19 -18.46,40.42 5.31,40.42l74.66 -19.3c14.09,58.07 22.24,118.42 23.72,180.41l-71.74 0c-27.05,0 -27.05,41.1 0,41.1l71.76 0c-1.47,61.98 -9.59,122.35 -23.67,180.41l-69.38 -18.59c-26.17,-7.04 -36.76,32.7 -10.65,39.7l69.55 18c-17.36,59.09 -40.96,115.54 -70.03,168.58l-61.97 -35.79c-23.39,-13.52 -44.01,22.06 -20.55,35.59 9.59,5.53 42.4,26.25 62,35.61 -31.83,52.01 -69.07,100.37 -110.94,144.28l-50.42 -50.41c-19.11,-19.13 -48.22,9.91 -29.07,29.07 13.22,13.24 34.07,37.43 50.48,50.35 -43.9,41.85 -92.22,79.09 -144.21,110.92l-35.74 -61.92c-13.54,-23.43 -49.11,-2.88 -35.59,20.55l35.77 61.95c-52.87,28.96 -109.11,52.52 -168,69.86l-18.57 -69.31c-7,-26.15 -46.7,-15.5 -39.7,10.65l18.57 69.31c-58.07,14.07 -118.41,22.24 -180.39,23.71l0 -71.75c0,-27.04 -41.1,-27.06 -41.1,0l0 71.76zm20.55 -213.65c-352.58,0 -639.42,-286.84 -639.42,-639.42 0,-352.57 286.84,-639.42 639.42,-639.42 352.58,0 639.42,286.85 639.42,639.42 0,352.57 -286.85,639.42 -639.42,639.42z" id="id_102" style="fill: rgb(189, 157, 157);"></path>
<path class="fil1" d="M1333.33 1599.27c-146.64,0 -265.94,-119.3 -265.94,-265.94 0,-146.64 119.3,-265.94 265.94,-265.94 146.65,0 265.95,119.3 265.95,265.94 0,146.64 -119.3,265.94 -265.95,265.94z" id="id_103" style="fill: rgb(194, 148, 148);"></path>
<path class="fil1" d="M1457.59 1130l0 -508.05c-82.15,-11.59 -166.35,-11.59 -248.5,-0l0 508.05c76.17,-46.71 172.33,-46.71 248.5,0z" id="id_104" style="fill: rgb(255, 255, 255);"></path>
<path class="fil1" d="M1561.9 1400.72l490.74 -131.49c-10.07,-82.35 -31.86,-163.68 -64.31,-240.03l-490.74 131.49c64.83,61.48 89.72,154.37 64.31,240.03z" id="id_105" style="fill: rgb(255, 255, 255);"></path>
<path class="fil1" d="M1327.41 1571.55l254.02 439.98c76.94,-31.04 149.85,-73.14 215.21,-124.24l-254.02 -439.99c-42.61,78.54 -125.89,126.62 -215.21,124.25z" id="id_106"></path>
<path class="fil1" d="M1101.7 1389.25l-359.24 359.25c49.89,66.28 109.43,125.82 175.71,175.72l359.25 -359.25c-86.89,-20.83 -154.89,-88.83 -175.72,-175.72z" id="id_107" style="fill: rgb(255, 255, 255);"></path>
<path class="fil1" d="M1219.37 1124.06l-439.98 -254.02c-51.11,65.35 -93.21,138.27 -124.25,215.2l439.98 254.03c-2.37,-89.32 45.71,-172.6 124.25,-215.21z" id="id_108" style="fill: rgb(255, 255, 255);"></path>
</g>
</svg>